<?xml version="1.0" encoding="UTF-8"?>
<svg xmlns="http://www.w3.org/2000/svg" xmlns:xlink="http://www.w3.org/1999/xlink" viewBox="0 0 96 96" width="96px" height="96px">
<g id="surface109611569">
<path style=" stroke:none;fill-rule:nonzero;fill:rgb(100%,100%,100%);fill-opacity:1;" d="M 48 96 C 21.492188 96 0 74.507812 0 48 C 0 21.492188 21.492188 0 48 0 C 74.507812 0 96 21.492188 96 48 C 96 74.507812 74.507812 96 48 96 Z M 48 96 "/>
<path style=" stroke:none;fill-rule:nonzero;fill:rgb(100%,43.137255%,4.313726%);fill-opacity:1;" d="M 48 24 C 34.789062 24 24.082031 34.707031 24.082031 47.917969 C 24.082031 59.90625 32.914062 69.808594 44.425781 71.539062 L 44.425781 54.253906 L 38.507812 54.253906 L 38.507812 47.96875 L 44.425781 47.96875 L 44.425781 43.785156 C 44.425781 36.859375 47.800781 33.816406 53.554688 33.816406 C 56.3125 33.816406 57.769531 34.019531 58.460938 34.113281 L 58.460938 39.601562 L 54.535156 39.601562 C 52.089844 39.601562 51.234375 41.917969 51.234375 44.53125 L 51.234375 47.96875 L 58.398438 47.96875 L 57.429688 54.253906 L 51.238281 54.253906 L 51.238281 71.589844 C 62.914062 70.007812 71.917969 60.023438 71.917969 47.917969 C 71.917969 34.707031 61.210938 24 48 24 Z M 48 24 "/>
</g>
</svg>
