<?xml version="1.0" encoding="UTF-8"?>
<svg xmlns="http://www.w3.org/2000/svg" xmlns:xlink="http://www.w3.org/1999/xlink" viewBox="0 0 100 100" width="100px" height="100px">
<g id="surface109722641">
<path style=" stroke:none;fill-rule:nonzero;fill:rgb(100%,100%,100%);fill-opacity:1;" d="M 50 100 C 22.386719 100 0 77.613281 0 50 C 0 22.386719 22.386719 0 50 0 C 77.613281 0 100 22.386719 100 50 C 100 77.613281 77.613281 100 50 100 Z M 50 100 "/>
<path style=" stroke:none;fill-rule:nonzero;fill:rgb(100%,43.137255%,4.313726%);fill-opacity:1;" d="M 39.199219 23.601562 C 30.597656 23.601562 23.601562 30.597656 23.601562 39.199219 L 23.601562 60.800781 C 23.601562 69.402344 30.597656 76.398438 39.199219 76.398438 L 60.800781 76.398438 C 69.402344 76.398438 76.398438 69.402344 76.398438 60.800781 L 76.398438 39.199219 C 76.398438 30.597656 69.402344 23.601562 60.800781 23.601562 Z M 39.199219 26 L 60.800781 26 C 68.105469 26 74 31.894531 74 39.199219 L 74 60.800781 C 74 68.105469 68.105469 74 60.800781 74 L 39.199219 74 C 31.894531 74 26 68.105469 26 60.800781 L 26 39.199219 C 26 31.894531 31.894531 26 39.199219 26 Z M 64.398438 33.199219 C 63.074219 33.199219 62 34.273438 62 35.601562 C 62 36.925781 63.074219 38 64.398438 38 C 65.726562 38 66.800781 36.925781 66.800781 35.601562 C 66.800781 34.273438 65.726562 33.199219 64.398438 33.199219 Z M 50 36.800781 C 42.722656 36.800781 36.800781 42.722656 36.800781 50 C 36.800781 57.277344 42.722656 63.199219 50 63.199219 C 57.277344 63.199219 63.199219 57.277344 63.199219 50 C 63.199219 42.722656 57.277344 36.800781 50 36.800781 Z M 50 39.199219 C 55.980469 39.199219 60.800781 44.019531 60.800781 50 C 60.800781 55.980469 55.980469 60.800781 50 60.800781 C 44.019531 60.800781 39.199219 55.980469 39.199219 50 C 39.199219 44.019531 44.019531 39.199219 50 39.199219 Z M 50 39.199219 "/>
</g>
</svg>
