<?xml version="1.0" encoding="UTF-8"?>
<svg xmlns="http://www.w3.org/2000/svg" xmlns:xlink="http://www.w3.org/1999/xlink" viewBox="0 0 96 96" width="96px" height="96px">
<g id="surface109614854">
<path style=" stroke:none;fill-rule:nonzero;fill:rgb(100%,100%,100%);fill-opacity:1;" d="M 48 96 C 21.492188 96 0 74.507812 0 48 C 0 21.492188 21.492188 0 48 0 C 74.507812 0 96 21.492188 96 48 C 96 74.507812 74.507812 96 48 96 Z M 48 96 "/>
<path style=" stroke:none;fill-rule:nonzero;fill:rgb(100%,43.137255%,4.313726%);fill-opacity:1;" d="M 64.800781 26.398438 L 31.199219 26.398438 C 28.546875 26.398438 26.398438 28.546875 26.398438 31.199219 L 26.398438 64.800781 C 26.398438 67.453125 28.546875 69.601562 31.199219 69.601562 L 64.800781 69.601562 C 67.453125 69.601562 69.601562 67.453125 69.601562 64.800781 L 69.601562 31.199219 C 69.601562 28.546875 67.453125 26.398438 64.800781 26.398438 Z M 40.800781 60 L 34.746094 60 L 34.746094 43.199219 L 40.800781 43.199219 Z M 37.664062 40.121094 C 35.816406 40.121094 34.578125 38.886719 34.578125 37.242188 C 34.578125 35.59375 35.8125 34.359375 37.871094 34.359375 C 39.71875 34.359375 40.957031 35.59375 40.957031 37.242188 C 40.957031 38.886719 39.722656 40.121094 37.664062 40.121094 Z M 62.398438 60 L 56.539062 60 L 56.539062 50.816406 C 56.539062 48.277344 54.976562 47.691406 54.390625 47.691406 C 53.804688 47.691406 51.851562 48.085938 51.851562 50.816406 C 51.851562 51.207031 51.851562 60 51.851562 60 L 45.796875 60 L 45.796875 43.199219 L 51.851562 43.199219 L 51.851562 45.542969 C 52.632812 44.175781 54.195312 43.199219 57.125 43.199219 C 60.054688 43.199219 62.398438 45.542969 62.398438 50.816406 Z M 62.398438 60 "/>
</g>
</svg>
