<svg width="96" height="96" viewBox="0 0 96 96" fill="none" xmlns="http://www.w3.org/2000/svg">
<path d="M48 96C74.5097 96 96 74.5097 96 48C96 21.4903 74.5097 0 48 0C21.4903 0 0 21.4903 0 48C0 74.5097 21.4903 96 48 96Z" fill="white"/>
<path d="M68.0833 36.3583C66.6113 36.9969 65.0546 37.4191 63.4617 37.6117C65.1422 36.6077 66.4016 35.0282 67.0062 33.1662C65.4269 34.1064 63.6981 34.7687 61.895 35.1246C60.6897 33.8175 59.0847 32.9475 57.3317 32.6509C55.5787 32.3543 53.7768 32.648 52.2087 33.4858C50.6405 34.3237 49.3948 35.6583 48.6669 37.2804C47.939 38.9025 47.7701 40.7203 48.1867 42.4487C44.9935 42.2872 41.8699 41.4558 39.019 40.0084C36.1681 38.561 33.6536 36.5301 31.6387 34.0475C30.9321 35.2816 30.5607 36.6792 30.5617 38.1012C30.5592 39.4219 30.8832 40.7227 31.5051 41.8878C32.1269 43.0529 33.0272 44.0462 34.1258 44.7792C32.8489 44.7444 31.5993 44.4018 30.4833 43.7804V43.8783C30.4929 45.7287 31.1413 47.5191 32.3189 48.9464C33.4965 50.3738 35.1309 51.3506 36.9458 51.7117C36.2472 51.9243 35.5219 52.0364 34.7917 52.0446C34.2862 52.0387 33.782 51.9928 33.2837 51.9075C33.8006 53.4993 34.8007 54.8903 36.145 55.8871C37.4893 56.884 39.1109 57.437 40.7842 57.4692C37.9587 59.6924 34.4703 60.9058 30.875 60.9158C30.2204 60.918 29.5663 60.8787 28.9167 60.7983C32.5874 63.1684 36.8652 64.4266 41.2346 64.4212C44.2498 64.4526 47.241 63.8827 50.0336 62.7451C52.8261 61.6074 55.364 59.9247 57.4989 57.7952C59.6339 55.6658 61.3231 53.1322 62.4679 50.3426C63.6127 47.553 64.1902 44.5632 64.1667 41.5479C64.1667 41.215 64.1667 40.8625 64.1667 40.51C65.7034 39.364 67.0287 37.9591 68.0833 36.3583V36.3583Z" fill="#FF6E0B"/>
</svg>
