<?xml version="1.0" encoding="UTF-8"?>
<svg xmlns="http://www.w3.org/2000/svg" xmlns:xlink="http://www.w3.org/1999/xlink" viewBox="0 0 96 96" width="96px" height="96px">
<g id="surface109618458">
<path style=" stroke:none;fill-rule:nonzero;fill:rgb(100%,100%,100%);fill-opacity:1;" d="M 48 96 C 21.492188 96 0 74.507812 0 48 C 0 21.492188 21.492188 0 48 0 C 74.507812 0 96 21.492188 96 48 C 96 74.507812 74.507812 96 48 96 Z M 48 96 "/>
<path style=" stroke:none;fill-rule:nonzero;fill:rgb(100%,43.137255%,4.313726%);fill-opacity:1;" d="M 67.164062 36.371094 C 66.703125 34.652344 65.347656 33.296875 63.628906 32.835938 C 60.507812 32 48 32 48 32 C 48 32 35.492188 32 32.371094 32.835938 C 30.652344 33.296875 29.296875 34.652344 28.835938 36.371094 C 28 39.492188 28 48 28 48 C 28 48 28 56.507812 28.835938 59.628906 C 29.296875 61.347656 30.652344 62.703125 32.371094 63.164062 C 35.492188 64 48 64 48 64 C 48 64 60.507812 64 63.628906 63.164062 C 65.351562 62.703125 66.703125 61.347656 67.164062 59.628906 C 68 56.507812 68 48 68 48 C 68 48 68 39.492188 67.164062 36.371094 Z M 44 54.929688 L 44 41.070312 L 56 48 Z M 44 54.929688 "/>
</g>
</svg>
